<?xml version="1.0" standalone="no"?>
<!DOCTYPE svg PUBLIC "-//W3C//DTD SVG 20010904//EN"
 "http://www.w3.org/TR/2001/REC-SVG-20010904/DTD/svg10.dtd">
<svg version="1.0" xmlns="http://www.w3.org/2000/svg"
 width="484.000000pt" height="352.000000pt" viewBox="0 0 484.000000 352.000000"
 preserveAspectRatio="xMidYMid meet">

<g transform="translate(0.000000,352.000000) scale(0.100000,-0.100000)"
fill="#000000" stroke="none">
<path d="M640 3514 c-84 -16 -242 -87 -303 -137 l-29 -22 275 -268 c299 -290
277 -275 381 -261 25 4 46 12 46 18 0 6 -27 38 -59 71 l-60 60 47 94 c44 88
47 98 47 175 0 58 -5 91 -18 118 -27 52 -83 108 -136 131 -44 19 -142 30 -191
21z m180 -94 c64 -33 85 -72 85 -160 0 -66 -4 -83 -34 -137 -60 -112 -46 -116
-230 63 -88 86 -161 160 -161 165 0 11 91 58 145 75 62 20 150 17 195 -6z"/>
<path d="M4093 3065 c-51 -12 -99 -28 -108 -35 -21 -17 -19 -53 5 -75 18 -17
25 -17 77 -5 116 26 154 40 162 63 5 12 5 30 0 39 -18 34 -41 36 -136 13z"/>
<path d="M3697 2968 c-57 -15 -82 -27 -93 -44 -20 -30 -10 -62 23 -71 40 -9
211 34 223 57 14 26 12 46 -6 64 -20 20 -50 19 -147 -6z"/>
<path d="M1520 2851 c-311 -37 -575 -71 -588 -75 -12 -4 -40 -32 -62 -61 -22
-30 -49 -59 -60 -65 -11 -6 -192 -42 -402 -80 -209 -38 -383 -72 -386 -74 -2
-3 19 -53 47 -112 44 -88 65 -119 129 -183 58 -59 89 -82 126 -94 141 -48 280
13 342 146 13 29 28 93 35 144 9 68 17 94 28 97 9 3 351 78 761 166 410 88
753 163 763 166 12 4 17 13 15 27 -4 29 -64 57 -130 62 -29 2 -307 -27 -618
-64z m-904 -444 c-10 -123 -53 -203 -123 -233 -76 -33 -163 -5 -235 75 -43 47
-104 148 -95 157 8 8 442 91 451 86 5 -3 6 -41 2 -85z"/>
<path d="M3326 2875 c-91 -24 -106 -34 -106 -72 0 -22 24 -53 41 -53 30 0 187
45 202 58 22 20 22 55 -1 75 -23 21 -26 21 -136 -8z"/>
<path d="M4219 2881 c-23 -18 -23 -21 -11 -78 26 -125 41 -162 69 -169 61 -16
75 31 44 152 -13 51 -28 85 -42 97 -27 21 -31 21 -60 -2z"/>
<path d="M2937 2778 c-83 -22 -104 -40 -93 -83 9 -36 38 -39 143 -14 73 18 99
29 110 46 14 21 14 26 -1 48 -20 31 -50 31 -159 3z"/>
<path d="M2640 2434 c-1127 -282 -1338 -337 -1353 -355 -10 -12 -16 -27 -14
-33 2 -6 100 -398 217 -871 118 -473 220 -868 228 -877 8 -10 26 -18 39 -18
37 0 2686 661 2711 676 15 10 22 24 22 47 -1 44 -425 1733 -440 1752 -7 8 -27
15 -44 14 -17 -1 -632 -151 -1366 -335z m1538 -592 c134 -537 196 -805 188
-807 -60 -21 -2567 -641 -2571 -635 -6 9 -395 1568 -398 1593 -2 19 84 42
1283 342 707 177 1288 319 1291 316 3 -3 96 -367 207 -809z"/>
<path d="M3301 2166 c-341 -85 -458 -118 -468 -132 -28 -39 10 -124 55 -124
39 1 932 226 945 239 14 14 11 64 -5 98 -10 21 -21 29 -43 30 -17 1 -234 -49
-484 -111z"/>
<path d="M3382 1861 c-354 -89 -466 -121 -474 -134 -15 -28 0 -96 27 -113 21
-14 58 -6 489 102 266 66 474 123 483 132 31 31 -5 133 -46 131 -9 0 -224 -53
-479 -118z"/>
<path d="M2069 1814 c-10 -13 -10 -40 4 -157 10 -95 12 -147 6 -159 -5 -10
-68 -47 -139 -83 -105 -53 -131 -70 -136 -90 -11 -46 15 -61 139 -80 62 -9
127 -21 144 -26 38 -12 44 -30 63 -184 14 -111 21 -131 50 -140 34 -11 54 10
125 135 39 67 78 126 87 131 11 6 65 2 153 -11 75 -11 140 -20 146 -20 15 0
49 39 49 56 0 9 -45 62 -100 119 -55 57 -100 111 -100 121 0 10 29 71 65 135
36 65 65 127 65 138 0 11 -11 28 -25 37 -25 16 -29 15 -158 -45 -73 -34 -141
-61 -151 -61 -10 0 -65 45 -121 100 -105 104 -136 120 -166 84z"/>
<path d="M3446 1555 c-246 -62 -453 -118 -459 -124 -26 -26 3 -124 38 -129 11
-1 229 49 485 112 338 84 468 120 478 133 14 20 8 66 -14 101 -10 16 -24 22
-47 21 -17 0 -234 -52 -481 -114z"/>
<path d="M3527 1253 c-410 -104 -460 -118 -469 -139 -14 -31 10 -104 37 -114
19 -7 897 204 950 228 28 13 33 49 14 99 -12 32 -26 43 -54 42 -11 0 -226 -53
-478 -116z"/>
<path d="M2571 2686 c-90 -23 -119 -46 -106 -86 11 -36 42 -39 144 -13 53 14
102 29 108 35 18 14 16 53 -3 72 -20 20 -40 19 -143 -8z"/>
<path d="M2207 2595 c-101 -26 -117 -37 -117 -76 0 -49 30 -54 144 -25 101 25
116 34 116 73 0 19 -34 55 -50 52 -3 0 -44 -11 -93 -24z"/>
<path d="M1133 2537 c-57 -11 -103 -23 -102 -26 0 -3 52 -49 114 -101 107 -89
117 -95 155 -92 22 1 40 -2 40 -7 0 -6 9 -15 20 -21 22 -12 177 21 218 47 27
17 29 54 3 77 -17 15 -25 16 -80 5 l-61 -13 -78 77 c-88 87 -77 85 -229 54z"/>
<path d="M1860 2509 c-135 -37 -140 -39 -146 -63 -8 -35 12 -66 42 -66 42 0
188 40 207 57 22 21 22 46 -1 66 -20 19 -49 20 -102 6z"/>
<path d="M4305 2496 c-17 -26 -18 -22 26 -189 12 -45 45 -65 77 -48 11 6 23
20 27 30 7 23 -30 177 -51 209 -19 30 -59 29 -79 -2z"/>
<path d="M1060 2308 c-88 -23 -100 -31 -100 -69 0 -46 33 -55 122 -34 117 28
138 39 138 72 0 58 -34 65 -160 31z"/>
<path d="M1005 2126 c-17 -26 -18 -22 26 -189 12 -45 45 -65 77 -48 11 6 23
20 27 30 7 23 -30 177 -51 209 -19 30 -59 29 -79 -2z"/>
<path d="M4402 2128 c-7 -7 -12 -23 -12 -36 0 -34 40 -184 52 -200 15 -17 68
-11 81 10 12 18 -25 201 -45 225 -13 16 -60 17 -76 1z"/>
<path d="M1102 1758 c-7 -7 -12 -23 -12 -36 0 -34 40 -184 52 -200 15 -18 68
-11 82 10 12 19 -24 199 -45 224 -14 17 -61 18 -77 2z"/>
<path d="M4501 1751 c-12 -12 -21 -26 -21 -31 0 -31 45 -187 58 -202 21 -25
59 -22 76 5 14 20 13 32 -10 122 -14 55 -28 103 -32 106 -20 19 -52 19 -71 0z"/>
<path d="M1199 1381 l-23 -19 24 -101 c26 -111 44 -137 84 -127 44 11 47 33
20 142 -31 122 -54 146 -105 105z"/>
<path d="M4598 1379 c-24 -13 -23 -51 3 -155 18 -69 27 -88 45 -96 18 -8 29
-7 49 6 30 20 30 24 4 134 -26 108 -54 139 -101 111z"/>
<path d="M1290 1005 c-16 -20 -16 -47 4 -125 24 -95 35 -117 59 -124 25 -6 67
18 67 40 0 33 -44 190 -58 207 -19 21 -55 22 -72 2z"/>
<path d="M4686 994 c-20 -19 -20 -34 -1 -104 8 -30 15 -67 15 -82 0 -39 41
-65 76 -50 13 7 27 19 31 28 8 20 -34 197 -50 213 -16 16 -53 14 -71 -5z"/>
<path d="M4415 777 c-69 -19 -81 -26 -89 -50 -8 -23 -6 -31 12 -49 l21 -22 98
22 c114 26 142 46 127 89 -8 24 -15 28 -49 30 -22 1 -76 -8 -120 -20z"/>
<path d="M4055 687 c-98 -27 -105 -31 -105 -66 0 -33 16 -51 48 -51 33 0 184
39 200 52 17 14 15 53 -4 72 -20 20 -40 19 -139 -7z"/>
<path d="M1382 628 c-17 -17 -15 -36 9 -136 25 -101 32 -112 68 -112 33 0 51
17 51 48 0 33 -39 184 -52 200 -13 15 -60 16 -76 0z"/>
<path d="M3687 595 c-48 -12 -94 -28 -102 -35 -21 -17 -19 -54 5 -75 18 -17
23 -17 112 5 51 13 101 27 111 32 25 13 23 74 -2 88 -24 12 -17 13 -124 -15z"/>
<path d="M3291 496 c-46 -13 -87 -30 -92 -37 -21 -34 3 -79 42 -79 37 0 190
43 205 57 32 32 4 84 -44 82 -15 0 -65 -11 -111 -23z"/>
<path d="M2929 406 c-47 -13 -91 -26 -98 -30 -20 -13 -13 -64 12 -80 20 -14
32 -13 115 8 51 13 99 30 107 36 31 26 7 91 -33 89 -9 0 -56 -11 -103 -23z"/>
<path d="M2536 307 c-85 -24 -103 -39 -92 -80 9 -39 39 -41 147 -14 77 19 96
28 106 48 10 19 10 28 -1 44 -18 28 -65 28 -160 2z"/>
<path d="M1480 250 c-24 -24 -25 -15 5 -129 27 -106 41 -127 79 -117 45 11 49
35 22 143 -31 121 -60 149 -106 103z"/>
<path d="M2167 218 c-84 -22 -115 -48 -102 -87 10 -34 51 -36 155 -10 84 21
96 27 104 51 8 22 6 32 -9 48 -22 24 -47 24 -148 -2z"/>
<path d="M1796 125 c-94 -25 -106 -33 -106 -77 0 -47 29 -53 133 -28 99 24
127 41 127 75 0 25 -29 55 -51 54 -8 0 -54 -11 -103 -24z"/>
</g>
</svg>
